<svg xmlns="http://www.w3.org/2000/svg" viewBox="0 0 240 240">
<!-- Placeholder héros « ZARA » (généré, en attendant l'illustration finale) -->
<defs>
  <radialGradient id="bg" cx="50%" cy="34%" r="80%">
    <stop offset="0%" stop-color="#8a55f5"/>
    <stop offset="62%" stop-color="#16224a"/>
    <stop offset="100%" stop-color="#0d1530"/>
  </radialGradient>
  <linearGradient id="fade" x1="0" y1="0" x2="0" y2="1">
    <stop offset="70%" stop-color="#0d1530" stop-opacity="0"/>
    <stop offset="100%" stop-color="#0d1530" stop-opacity="0.55"/>
  </linearGradient>
</defs>
<rect width="240" height="240" fill="url(#bg)"/>

<ellipse cx="52" cy="112" rx="26" ry="34" fill="#f06bb4" stroke="#c23a86" stroke-width="3"/>
<ellipse cx="46" cy="150" rx="20" ry="26" fill="#f06bb4" stroke="#c23a86" stroke-width="3"/>
<ellipse cx="188" cy="112" rx="26" ry="34" fill="#f06bb4" stroke="#c23a86" stroke-width="3"/>
<ellipse cx="194" cy="150" rx="20" ry="26" fill="#f06bb4" stroke="#c23a86" stroke-width="3"/>
<ellipse cx="120" cy="114" rx="54" ry="52" fill="#ffd9b0" stroke="#c98d5f" stroke-width="3"/>
<path d="M64 106 C60 66 88 42 120 42 C152 42 180 66 176 106 C166 80 150 68 120 68 C90 68 74 80 64 106 Z" fill="#f06bb4" stroke="#c23a86" stroke-width="3"/>
<path d="M80 86 Q100 62 120 64 Q104 76 98 96 Z" fill="#ff9dcc"/>
<path d="M62 108 a10 12 0 1 0 0.1 0 Z" fill="#8a55f5" stroke="#5c28c4" stroke-width="3"/>
<path d="M178 108 a10 12 0 1 0 0.1 0 Z" fill="#8a55f5" stroke="#5c28c4" stroke-width="3"/>
<path d="M66 96 C74 54 166 54 174 96" stroke="#8a55f5" stroke-width="9" fill="none"/>
<ellipse cx="99.0" cy="118" rx="13" ry="15" fill="#fff"/>
<circle cx="99.0" cy="120" r="8" fill="#8a55f5"/>
<circle cx="99.0" cy="120" r="3.6" fill="#1a120c"/>
<circle cx="96.0" cy="115" r="3.2" fill="#fff"/><ellipse cx="141.0" cy="118" rx="13" ry="15" fill="#fff"/>
<circle cx="141.0" cy="120" r="8" fill="#8a55f5"/>
<circle cx="141.0" cy="120" r="3.6" fill="#1a120c"/>
<circle cx="138.0" cy="115" r="3.2" fill="#fff"/><path d="M91 102 Q99 94 107 98" stroke="#c23a86" stroke-width="5" fill="none" stroke-linecap="round"/><path d="M133 98 Q141 94 149 102" stroke="#c23a86" stroke-width="5" fill="none" stroke-linecap="round"/><path d="M104 146 Q120 158 136 146" stroke="#8a4a32" stroke-width="4.5" fill="none" stroke-linecap="round"/><path d="M52 240 C52 192 76 168 120 168 C164 168 188 192 188 240 Z" fill="#8a55f5" stroke="#5c28c4" stroke-width="3"/>
<path d="M52 240 C52 216 60 200 76 190 L76 240 Z" fill="#5c28c4" opacity="0.35"/>
<path d="M188 240 C188 216 180 200 164 190 L164 240 Z" fill="#5c28c4" opacity="0.35"/><path d="M96 172 L120 196 L144 172 Q120 162 96 172 Z" fill="#ffd9b0"/>
<rect width="240" height="240" fill="url(#fade)"/>
</svg>